<?xml version="1.0" encoding="utf-8"?>
<!-- Generator: Adobe Illustrator 24.2.3, SVG Export Plug-In . SVG Version: 6.00 Build 0)  -->
<svg version="1.1" id="add8efa2-ea20-4a06-887e-6413c87b31a4"
	 xmlns="http://www.w3.org/2000/svg" xmlns:xlink="http://www.w3.org/1999/xlink" x="0px" y="0px" viewBox="0 0 885.9 622.8"
	 style="enable-background:new 0 0 885.9 622.8;" xml:space="preserve">
<style type="text/css">
	.st0{fill:#3F3D56;}
	.st1{fill:#FABD16;}
	.st2{opacity:0.2;enable-background:new    ;}
	.st3{fill:#E6E6E6;}
	.st4{fill:#FFFFFF;}
	.st5{fill:#9E616A;}
	.st6{fill:#2F2E41;}
</style>
<polygon class="st0" points="461.6,348.4 400.4,348.4 400.4,350.3 410,350.3 410,369.1 411.9,369.1 411.9,350.3 449.1,350.3 
	449.1,369.1 451.1,369.1 451.1,350.3 461.6,350.3 "/>
<polygon class="st0" points="484.3,300 468.5,300 468.5,315.8 475.8,315.8 475.8,369 477.8,369 477.8,315.8 484.3,315.8 "/>
<rect x="400.5" y="342.5" class="st0" width="61.2" height="2"/>
<rect x="400.5" y="337.5" class="st0" width="61.2" height="2"/>
<rect x="400.5" y="332.6" class="st0" width="61.2" height="2"/>
<circle class="st1" cx="755.3" cy="229.8" r="130.6"/>
<path class="st2" d="M852.4,142.6c28.4,66.3-2.4,143.1-68.8,171.4c-51.6,22.1-111.5,8.7-148.9-33.2c28.4,66.3,105.1,97.1,171.4,68.8
	s97.1-105.1,68.8-171.4C869.4,165.1,861.8,153.1,852.4,142.6z"/>
<polygon class="st0" points="755.6,229.8 756,229.8 762.5,600.1 748.8,600.1 "/>
<rect x="754.9" y="431.1" transform="matrix(0.8849 -0.4659 0.4659 0.8849 -113.9994 407.3751)" class="st0" width="24.4" height="6.5"/>
<circle class="st1" cx="369.9" cy="321.7" r="20.6"/>
<path class="st2" d="M385.2,308c4.5,10.4-0.4,22.5-10.8,27c-8.1,3.5-17.6,1.4-23.4-5.2c4.5,10.4,16.5,15.3,27,10.8
	c10.4-4.5,15.3-16.5,10.8-27C387.9,311.5,386.7,309.6,385.2,308z"/>
<polygon class="st0" points="370,321.7 370,321.7 371,380 368.9,380 "/>
<rect x="369.9" y="353.4" transform="matrix(0.8849 -0.4659 0.4659 0.8849 -122.06 213.9413)" class="st0" width="3.8" height="1"/>
<ellipse transform="matrix(0.1602 -0.9871 0.9871 0.1602 218.0509 767.1741)" class="st1" cx="559.9" cy="255.4" rx="52.6" ry="52.6"/>
<path class="st2" d="M599,220.3c11.4,26.7-1,57.7-27.7,69.1c-20.8,8.9-44.9,3.5-60-13.4c11.4,26.7,42.4,39.1,69.1,27.7
	s39.1-42.4,27.7-69.1C605.9,229.4,602.8,224.5,599,220.3L599,220.3z"/>
<polygon class="st0" points="560,255.4 560.2,255.4 562.8,404.7 557.3,404.7 "/>
<rect x="559.7" y="336.6" transform="matrix(0.8849 -0.4659 0.4659 0.8849 -92.381 301.9491)" class="st0" width="9.8" height="2.6"/>
<path class="st0" d="M197.5,596c0,0,0.7-14.3,14.7-12.6"/>
<circle class="st1" cx="193.6" cy="575.5" r="7"/>
<rect x="192.4" y="587.2" class="st0" width="2" height="13.8"/>
<path class="st0" d="M246.9,563.5c0,0,0.7-14.3,14.7-12.6"/>
<circle class="st1" cx="242.9" cy="542.9" r="7"/>
<rect x="241.8" y="554.7" class="st0" width="2" height="13.8"/>
<path class="st0" d="M395.6,453c0,0,0.5-11.3,11.6-10"/>
<circle class="st1" cx="392.5" cy="436.6" r="5.6"/>
<rect x="391.6" y="446" class="st0" width="1.6" height="11"/>
<path class="st0" d="M612.7,417.5c0,0,0.5-11.3,11.6-10"/>
<circle class="st1" cx="609.6" cy="401.1" r="5.6"/>
<rect x="608.7" y="410.5" class="st0" width="1.6" height="11"/>
<path class="st0" d="M405.5,482.6c0,0,0.5-11.3,11.6-10"/>
<circle class="st1" cx="402.3" cy="466.2" r="5.6"/>
<rect x="401.4" y="475.6" class="st0" width="1.6" height="11"/>
<path class="st0" d="M381.8,504.3c0,0,0.5-11.3,11.6-10"/>
<circle class="st1" cx="378.7" cy="488" r="5.6"/>
<rect x="377.8" y="497.3" class="st0" width="1.6" height="11"/>
<path class="st0" d="M646.3,436.2c0,0,0.5-11.3,11.6-10"/>
<circle class="st1" cx="643.1" cy="419.9" r="5.6"/>
<rect x="642.2" y="429.2" class="st0" width="1.6" height="11"/>
<path class="st0" d="M326.5,460.9c0,0,0.5-11.3,11.6-10"/>
<circle class="st1" cx="323.4" cy="444.5" r="5.6"/>
<rect x="322.5" y="453.9" class="st0" width="1.6" height="11"/>
<path class="st0" d="M583.1,404.6c0,0,0.5-11.3,11.6-10"/>
<circle class="st1" cx="580" cy="388.3" r="5.6"/>
<rect x="579.1" y="397.6" class="st0" width="1.6" height="11"/>
<path class="st0" d="M111.7,599c0,0,0.7-14.3,14.7-12.6"/>
<circle class="st1" cx="107.7" cy="578.4" r="7"/>
<rect x="106.6" y="590.2" class="st0" width="2" height="13.8"/>
<path class="st0" d="M791.6,595.1c0,0,0.7-14.3,14.7-12.6"/>
<circle class="st1" cx="787.7" cy="574.5" r="7"/>
<rect x="786.5" y="586.2" class="st0" width="2" height="13.8"/>
<path class="st0" d="M734.4,561.5c0,0,0.7-14.3,14.7-12.6"/>
<circle class="st1" cx="730.4" cy="540.9" r="7"/>
<rect x="729.3" y="552.7" class="st0" width="2" height="13.8"/>
<path class="st0" d="M726.5,611.8c0,0,0.7-14.3,14.7-12.6"/>
<circle class="st1" cx="722.5" cy="591.2" r="7"/>
<rect x="721.4" y="603" class="st0" width="2" height="13.8"/>
<path class="st3" d="M123,622.5c0,0,310.9-81.9,307.9-165.8c-5.4-23.2-42.9-29.1-42.9-29.1s-88.8-11.8-40.5-40.5
	s180.6-21.7,180.6-21.7s-136.2,21.7-76,33.6c48.4,3,110.5,15.8,110.5,15.8s126.3,26.6,144.1,91.8c17.8,65.1,3,115.5,3,115.5
	L123,622.5z"/>
<path class="st4" d="M461.6,622.8l-1.2-1.6c1.6-1.2,3.3-2.3,4.9-3.5l1.2,1.6C464.9,620.5,463.3,621.6,461.6,622.8z"/>
<path class="st4" d="M476.1,612.1l-1.2-1.6c3.2-2.4,6.4-4.9,9.5-7.3l1.2,1.6C482.6,607.2,479.4,609.7,476.1,612.1z M494.9,597.2
	l-1.3-1.5c3.1-2.6,6.2-5.2,9.1-7.8l1.3,1.5C501.2,592,498.1,594.6,494.9,597.2z M513,581.4l-1.4-1.5c3-2.8,5.9-5.6,8.6-8.3l1.4,1.4
	C518.9,575.7,516,578.5,513,581.4z M529.8,564.2l-1.5-1.3c2.7-3.1,5.3-6.1,7.7-9.1l1.6,1.2C535.2,558,532.6,561.1,529.8,564.2z
	 M544.8,545.4l-1.7-1.1c2.3-3.4,4.4-6.8,6.2-10.1l1.8,1C549.3,538.4,547.1,541.9,544.8,545.4z M556.3,524.1l-1.9-0.7
	c1.5-3.7,2.6-7.4,3.4-11.3l2,0.4C558.9,516.5,557.8,520.4,556.3,524.1L556.3,524.1z M559,500.4c-0.1-3.9-0.6-7.8-1.6-11.5l1.9-0.5
	c1.1,3.9,1.6,7.9,1.7,12L559,500.4z M553,478.1c-1.9-3.4-4.1-6.7-6.7-9.7l1.5-1.3c2.6,3.1,4.9,6.4,6.9,10L553,478.1z M538.1,460
	c-3-2.6-6.1-5.1-9.3-7.3l1.2-1.6c3.3,2.3,6.5,4.8,9.5,7.5L538.1,460z M518.7,446.3c-3.3-1.9-6.8-3.8-10.5-5.7l0.9-1.8
	c3.7,1.9,7.3,3.8,10.6,5.8L518.7,446.3z M497.4,435.4c-3.5-1.5-7.2-3.1-11-4.6l0.7-1.9c3.9,1.5,7.6,3.1,11.1,4.7L497.4,435.4z
	 M475.2,426.6c-3.6-1.3-7.4-2.6-11.3-3.9l0.6-1.9c4,1.3,7.8,2.7,11.4,4L475.2,426.6z M452.4,418.9c-3.5-1.1-7.2-2.3-11.5-3.5
	l0.6-1.9c4.2,1.3,8,2.4,11.5,3.5L452.4,418.9z M429.5,411.9c-4-1.2-7.9-2.4-11.5-3.5l0.6-1.9c3.6,1.1,7.5,2.3,11.5,3.5L429.5,411.9z
	 M406.5,404.7c-3.8-1.3-7.6-2.8-11.3-4.5l0.9-1.8c3.6,1.7,7.3,3.2,11,4.4L406.5,404.7z M391.4,391.6l-1.4-1.4
	c1.8-1.9,5.4-3.7,11-5.5l0.6,1.9C396.4,388.3,392.9,390,391.4,391.6L391.4,391.6z M413,383.3l-0.5-1.9c3.5-0.9,7.4-1.8,11.7-2.7
	l0.4,2C420.4,381.6,416.5,382.5,413,383.3L413,383.3z M436.4,378.3l-0.4-2c3.7-0.7,7.7-1.4,11.8-2.2l0.3,2
	C444.1,376.9,440.1,377.6,436.4,378.3L436.4,378.3z M460,374.1l-0.3-2c3.8-0.6,7.7-1.3,11.8-1.9l0.3,2
	C467.7,372.8,463.8,373.5,460,374.1z"/>
<path class="st4" d="M483.9,370.3l-0.3-2c1.9-0.3,3.9-0.6,5.9-0.9l0.3,2C487.8,369.7,485.8,370,483.9,370.3z"/>
<path class="st5" d="M502.5,430.4c0,0-7.9,0-8.7,4.8s-2.2,57.3-1.3,63.8s0.9,5.2,0.9,5.2s-1.7,12.5,2.2,13s3.9-14.3,3.9-14.3
	l3.1-53.3L502.5,430.4z"/>
<path class="st5" d="M536.6,430.4c0,0,7.9,0,8.7,4.8s2.2,57.3,1.3,63.8c-0.9,6.6-0.9,5.2-0.9,5.2s1.7,12.5-2.2,13
	c-3.9,0.5-3.9-14.3-3.9-14.3l-3.1-53.3L536.6,430.4z"/>
<path class="st6" d="M501.2,613.2h-3.5c-4.3,0-7.9,3.5-7.9,7.9v0v0h21.4V611h-10.1V613.2z"/>
<path class="st6" d="M534.9,613.2h3.5c4.3,0,7.9,3.5,7.9,7.9l0,0v0h-21.4V611h10.1L534.9,613.2z"/>
<circle class="st5" cx="516.1" cy="409" r="11.4"/>
<path class="st5" d="M513.5,415.1c0,0-1.3,14.4-3.1,15.7c-1.7,1.3,18.4-0.9,18.4-0.9s-7-10.5-5.7-14
	C524.4,412.5,513.5,415.1,513.5,415.1z"/>
<path class="st6" d="M539.3,430.4c0,0-24-10.1-39.8,0c0,0-3.9,10.1-0.9,15.7s7.9,19.2,3.1,28.4s0.4,5.2,0.4,5.2s-6.1,24.5-7,43.7
	s2.6,88.3,5.2,88.7s10.9,1.3,11.8,0c0.9-1.3,7-92.7,7-92.7s2.6,93.6,5.2,93.6s9.6,0,10.9-2.2c1.3-2.2,12.2-86.6,8.3-104
	c-3.9-17.5-6.6-26.2-6.6-26.2s4.8-3.1,3.5-4.8s-7.9-20.5-4.8-23.6S539.3,430.4,539.3,430.4z"/>
<circle class="st6" cx="523.3" cy="402.2" r="18.4"/>
<path class="st6" d="M534.8,393c-6.4-1.5-10.5-7.8-9.3-14.3c-0.1,0.2-0.1,0.4-0.1,0.6c-1.6,6.6,2.6,13.3,9.2,14.9
	c6.6,1.6,13.3-2.6,14.9-9.2c0-0.2,0.1-0.4,0.1-0.6C547.7,390.7,541.2,394.5,534.8,393z"/>
<circle class="st6" cx="535.5" cy="386.4" r="9"/>
</svg>
